<svg width="13" height="14" viewBox="0 0 13 14" fill="none" xmlns="http://www.w3.org/2000/svg">
<path d="M11.6875 1.0625H10.0938V0.53125C10.0938 0.390354 10.0378 0.255228 9.93815 0.1556C9.83852 0.0559708 9.7034 0 9.5625 0C9.4216 0 9.28648 0.0559708 9.18685 0.1556C9.08722 0.255228 9.03125 0.390354 9.03125 0.53125V1.0625H3.71875V0.53125C3.71875 0.390354 3.66278 0.255228 3.56315 0.1556C3.46352 0.0559708 3.3284 0 3.1875 0C3.0466 0 2.91148 0.0559708 2.81185 0.1556C2.71222 0.255228 2.65625 0.390354 2.65625 0.53125V1.0625H1.0625C0.780707 1.0625 0.510456 1.17444 0.311199 1.3737C0.111942 1.57296 0 1.84321 0 2.125V12.75C0 13.0318 0.111942 13.302 0.311199 13.5013C0.510456 13.7006 0.780707 13.8125 1.0625 13.8125H11.6875C11.9693 13.8125 12.2395 13.7006 12.4388 13.5013C12.6381 13.302 12.75 13.0318 12.75 12.75V2.125C12.75 1.84321 12.6381 1.57296 12.4388 1.3737C12.2395 1.17444 11.9693 1.0625 11.6875 1.0625ZM11.6875 4.25H1.0625V2.125H2.65625V2.65625C2.65625 2.79715 2.71222 2.93227 2.81185 3.0319C2.91148 3.13153 3.0466 3.1875 3.1875 3.1875C3.3284 3.1875 3.46352 3.13153 3.56315 3.0319C3.66278 2.93227 3.71875 2.79715 3.71875 2.65625V2.125H9.03125V2.65625C9.03125 2.79715 9.08722 2.93227 9.18685 3.0319C9.28648 3.13153 9.4216 3.1875 9.5625 3.1875C9.7034 3.1875 9.83852 3.13153 9.93815 3.0319C10.0378 2.93227 10.0938 2.79715 10.0938 2.65625V2.125H11.6875V4.25Z" fill="#282A3A"/>
</svg>
