<svg width="14" height="14" viewBox="0 0 14 14" fill="none" xmlns="http://www.w3.org/2000/svg">
<path d="M13.7409 13.0174C13.6943 13.0982 13.6272 13.1653 13.5464 13.2119C13.4656 13.2585 13.374 13.2831 13.2807 13.2831H0.530705C0.437498 13.283 0.345956 13.2583 0.265271 13.2117C0.184587 13.165 0.1176 13.0979 0.0710378 13.0172C0.0244754 12.9365 -2.39117e-05 12.8449 1.75125e-08 12.7517C2.39467e-05 12.6585 0.0245702 12.5669 0.0711741 12.4862C1.08254 10.7377 2.6411 9.48395 4.45996 8.88962C3.56027 8.35402 2.86126 7.53791 2.47029 6.56659C2.07932 5.59528 2.018 4.52248 2.29574 3.51294C2.57349 2.5034 3.17495 1.61295 4.00775 0.978327C4.84056 0.343703 5.85866 0 6.90571 0C7.95275 0 8.97085 0.343703 9.80366 0.978327C10.6365 1.61295 11.2379 2.5034 11.5157 3.51294C11.7934 4.52248 11.7321 5.59528 11.3411 6.56659C10.9501 7.53791 10.2511 8.35402 9.35145 8.88962C11.1703 9.48395 12.7289 10.7377 13.7402 12.4862C13.787 12.5669 13.8116 12.6585 13.8117 12.7517C13.8119 12.845 13.7874 12.9366 13.7409 13.0174Z" fill="#282A3A"/>
</svg>
